<mxfile host="65bd71144e">
    <diagram id="6vl40h1K1rYPfvugt2zY" name="第 1 页">
        <mxGraphModel dx="1758" dy="886" grid="1" gridSize="10" guides="1" tooltips="1" connect="1" arrows="1" fold="1" page="1" pageScale="1" pageWidth="827" pageHeight="1169" math="0" shadow="0">
            <root>
                <mxCell id="0"/>
                <mxCell id="1" parent="0"/>
                <mxCell id="4" value="数据长度：&lt;br&gt;msg_size" style="rounded=0;whiteSpace=wrap;html=1;" vertex="1" parent="1">
                    <mxGeometry x="140" y="410" width="80" height="60" as="geometry"/>
                </mxCell>
                <mxCell id="5" value="数据：&lt;br&gt;摄像头获取的一帧画面" style="rounded=0;whiteSpace=wrap;html=1;" vertex="1" parent="1">
                    <mxGeometry x="220" y="410" width="470" height="60" as="geometry"/>
                </mxCell>
                <mxCell id="6" value="" style="endArrow=classic;startArrow=classic;html=1;" edge="1" parent="1">
                    <mxGeometry width="50" height="50" relative="1" as="geometry">
                        <mxPoint x="140" y="390" as="sourcePoint"/>
                        <mxPoint x="220" y="390" as="targetPoint"/>
                    </mxGeometry>
                </mxCell>
                <mxCell id="7" value="header_size" style="text;html=1;align=center;verticalAlign=middle;resizable=0;points=[];autosize=1;strokeColor=none;fillColor=none;" vertex="1" parent="1">
                    <mxGeometry x="140" y="370" width="80" height="20" as="geometry"/>
                </mxCell>
                <mxCell id="8" value="data_buffer:" style="text;html=1;align=center;verticalAlign=middle;resizable=0;points=[];autosize=1;strokeColor=none;fillColor=none;fontSize=18;" vertex="1" parent="1">
                    <mxGeometry x="30" y="425" width="110" height="30" as="geometry"/>
                </mxCell>
                <mxCell id="9" value="" style="shape=curlyBracket;whiteSpace=wrap;html=1;rounded=1;fontSize=18;direction=south;rotation=-180;" vertex="1" parent="1">
                    <mxGeometry x="140" y="490" width="80" height="20" as="geometry"/>
                </mxCell>
                <mxCell id="10" value="&lt;font style=&quot;font-size: 12px&quot;&gt;data_buffer[:header_size]&lt;/font&gt;" style="text;html=1;align=center;verticalAlign=middle;resizable=0;points=[];autosize=1;strokeColor=none;fillColor=none;fontSize=18;" vertex="1" parent="1">
                    <mxGeometry x="105" y="510" width="150" height="30" as="geometry"/>
                </mxCell>
                <mxCell id="11" value="" style="shape=curlyBracket;whiteSpace=wrap;html=1;rounded=1;fontSize=18;direction=south;rotation=-180;" vertex="1" parent="1">
                    <mxGeometry x="230" y="490" width="460" height="20" as="geometry"/>
                </mxCell>
                <mxCell id="12" value="&lt;font style=&quot;font-size: 12px&quot;&gt;data_buffer[header_size:header_size+msg_size]&lt;/font&gt;" style="text;html=1;align=center;verticalAlign=middle;resizable=0;points=[];autosize=1;strokeColor=none;fillColor=none;fontSize=18;" vertex="1" parent="1">
                    <mxGeometry x="320" y="510" width="270" height="30" as="geometry"/>
                </mxCell>
                <mxCell id="13" value="数据长度" style="rounded=0;whiteSpace=wrap;html=1;" vertex="1" parent="1">
                    <mxGeometry x="690" y="410" width="80" height="60" as="geometry"/>
                </mxCell>
                <mxCell id="14" value="数据" style="rounded=0;whiteSpace=wrap;html=1;" vertex="1" parent="1">
                    <mxGeometry x="770" y="410" width="470" height="60" as="geometry"/>
                </mxCell>
                <mxCell id="15" value="" style="endArrow=classic;html=1;fontSize=12;exitX=0.418;exitY=1.067;exitDx=0;exitDy=0;exitPerimeter=0;entryX=0.25;entryY=1;entryDx=0;entryDy=0;" edge="1" parent="1" source="8" target="11">
                    <mxGeometry width="50" height="50" relative="1" as="geometry">
                        <mxPoint x="690" y="570" as="sourcePoint"/>
                        <mxPoint x="690" y="520" as="targetPoint"/>
                        <Array as="points">
                            <mxPoint x="76" y="560"/>
                            <mxPoint x="690" y="560"/>
                        </Array>
                    </mxGeometry>
                </mxCell>
                <mxCell id="16" value="处理完一帧数据之后向前移动" style="text;html=1;align=center;verticalAlign=middle;resizable=0;points=[];autosize=1;strokeColor=none;fillColor=none;fontSize=12;" vertex="1" parent="1">
                    <mxGeometry x="235" y="560" width="170" height="20" as="geometry"/>
                </mxCell>
                <mxCell id="17" value="" style="endArrow=classic;startArrow=classic;html=1;fontSize=12;exitX=1.05;exitY=1;exitDx=0;exitDy=0;exitPerimeter=0;" edge="1" parent="1" source="7">
                    <mxGeometry width="50" height="50" relative="1" as="geometry">
                        <mxPoint x="680" y="570" as="sourcePoint"/>
                        <mxPoint x="690" y="390" as="targetPoint"/>
                    </mxGeometry>
                </mxCell>
                <mxCell id="18" value="msg_size" style="text;html=1;align=center;verticalAlign=middle;resizable=0;points=[];autosize=1;strokeColor=none;fillColor=none;fontSize=12;" vertex="1" parent="1">
                    <mxGeometry x="415" y="370" width="70" height="20" as="geometry"/>
                </mxCell>
            </root>
        </mxGraphModel>
    </diagram>
</mxfile>